HIERARCHY
ROOT Pelvis
{
	OFFSET 0.000000 0.941512 0.000000
	CHANNELS 6 Xposition Yposition Zposition Zrotation Yrotation Xrotation 
	JOINT Pelvis_L_Hip
	{
		OFFSET 0.000000 0.000000 0.000000
		CHANNELS 3 Zrotation Yrotation Xrotation
		JOINT L_Hip
		{
			OFFSET 0.062321 -0.080322 -0.016990
			CHANNELS 3 Zrotation Yrotation Xrotation
			JOINT L_Knee
			{
				OFFSET 0.093051 -0.381305 -0.029784
				CHANNELS 3 Zrotation Yrotation Xrotation
				JOINT L_Ankle
				{
					OFFSET -0.010371 -0.431000 -0.033614
					CHANNELS 3 Zrotation Yrotation Xrotation
					End Site #name: L_Foot
					{
						OFFSET 0.069299 -0.038670 0.119418
					}
				}
			}
		}
	}
	JOINT Pelvis_R_Hip
	{
		OFFSET 0.000000 0.000000 0.000000
		CHANNELS 3 Zrotation Yrotation Xrotation
		JOINT R_Hip
		{
			OFFSET -0.055334 -0.094904 -0.002373
			CHANNELS 3 Zrotation Yrotation Xrotation
			JOINT R_Knee
			{
				OFFSET -0.064207 -0.384370 -0.019592
				CHANNELS 3 Zrotation Yrotation Xrotation
				JOINT R_Ankle
				{
					OFFSET 0.025418 -0.419734 -0.065953
					CHANNELS 3 Zrotation Yrotation Xrotation
					End Site #name: R_Foot
					{
						OFFSET -0.057233 -0.039888 0.132134
					}
				}
			}
		}
	}
	JOINT Pelvis_Spine1
	{
		OFFSET 0.000000 0.000000 0.000000
		CHANNELS 3 Zrotation Yrotation Xrotation
		JOINT Spine1
		{
			OFFSET -0.005562 0.124093 -0.043360
			CHANNELS 3 Zrotation Yrotation Xrotation
			JOINT Spine2
			{
				OFFSET 0.012244 0.139499 0.029894
				CHANNELS 3 Zrotation Yrotation Xrotation
				JOINT Spine3
				{
					OFFSET -0.002556 0.056561 0.009225
					CHANNELS 3 Zrotation Yrotation Xrotation
					JOINT Spine3_Neck
					{
						OFFSET 0.000000 0.000000 0.000000
						CHANNELS 3 Zrotation Yrotation Xrotation
						JOINT Neck
						{
							OFFSET -0.005205 0.217920 -0.024551
							CHANNELS 3 Zrotation Yrotation Xrotation
							End Site #name: Head
							{
								OFFSET 0.002365 0.091850 0.046637
							}
						}
					}
					JOINT Spine3_L_Collar
					{
						OFFSET 0.000000 0.000000 0.000000
						CHANNELS 3 Zrotation Yrotation Xrotation
						JOINT L_Collar
						{
							OFFSET 0.072225 0.116603 -0.009480
							CHANNELS 3 Zrotation Yrotation Xrotation
							JOINT L_Shoulder
							{
								OFFSET 0.115937 -0.058643 -0.021018
								CHANNELS 3 Zrotation Yrotation Xrotation
								JOINT L_Elbow
								{
									OFFSET 0.021994 -0.254722 -0.024492
									CHANNELS 3 Zrotation Yrotation Xrotation
									End Site #name: L_Wrist
									{
										OFFSET 0.048810 -0.240214 0.103329
									}
								}
							}
						}
					}
					JOINT Spine3_R_Collar
					{
						OFFSET 0.000000 0.000000 0.000000
						CHANNELS 3 Zrotation Yrotation Xrotation
						JOINT R_Collar
						{
							OFFSET -0.073372 0.120704 -0.024611
							CHANNELS 3 Zrotation Yrotation Xrotation
							JOINT R_Shoulder
							{
								OFFSET -0.108089 -0.054969 -0.020504
								CHANNELS 3 Zrotation Yrotation Xrotation
								JOINT R_Elbow
								{
									OFFSET -0.033684 -0.260739 0.009889
									CHANNELS 3 Zrotation Yrotation Xrotation
									End Site #name: R_Wrist
									{
										OFFSET -0.067980 -0.232763 0.118463
									}
								}
							}
						}
					}
				}
			}
		}
	}
}
MOTION
Frames: 13
Frame Time: 0.041667
0.000000 0.926960 0.000000 -4.347038 -3.659762 3.367675 0.000000 0.000000 0.000000 2.105999 0.288007 2.020405 5.969587 -0.645095 2.116637 2.065442 -15.447644 -10.507781 0.000000 0.000000 0.000000 3.577554 3.093971 -16.312402 -4.415855 1.319269 6.066189 4.219010 7.594065 3.850733 0.000000 0.000000 0.000000 3.961033 0.815003 -13.892423 -3.487259 5.757157 50.221993 1.090420 3.275658 -41.198207 0.000000 0.000000 0.000000 -6.524434 3.163981 10.469040 0.000000 0.000000 0.000000 10.613556 -30.301948 -17.359540 2.227803 0.673065 11.301766 -11.279265 -32.794306 -54.880169 0.000000 0.000000 0.000000 -9.547867 25.571855 -14.017650 7.519499 -1.766250 12.022615 -20.462388 -1.624145 -58.953737 
-0.022612 0.925767 0.009888 -5.163291 -3.408836 3.675902 0.000000 0.000000 0.000000 4.187476 -0.264220 0.359805 6.118288 -0.965726 6.161851 3.135917 -14.033294 -11.717388 0.000000 0.000000 0.000000 5.686331 3.141725 -15.705394 -4.084022 1.233252 5.921499 3.714852 7.708007 2.815784 0.000000 0.000000 0.000000 4.193801 0.656871 -12.807175 -3.669183 5.785469 49.921260 1.376686 3.377266 -40.898764 0.000000 0.000000 0.000000 -6.722977 3.230800 9.439615 0.000000 0.000000 0.000000 10.601087 -29.576412 -16.902626 3.089614 0.587928 12.100904 -11.135678 -31.146291 -52.756475 0.000000 0.000000 0.000000 -9.267651 24.542670 -13.365083 7.338168 -2.136200 13.958293 -21.018268 -2.173784 -59.955622 
-0.044205 0.925024 0.017639 -5.658121 -3.197353 3.809832 0.000000 0.000000 0.000000 5.795936 -0.896671 -2.254632 6.142558 -1.400172 11.973407 3.829560 -12.264737 -12.206085 0.000000 0.000000 0.000000 7.400363 3.140081 -15.108229 -3.708458 1.135392 5.738703 3.349482 7.877851 2.010913 0.000000 0.000000 0.000000 3.886419 0.450523 -10.851937 -3.756928 5.736467 49.476820 1.554820 3.298865 -40.678611 0.000000 0.000000 0.000000 -7.072760 3.386571 8.627153 0.000000 0.000000 0.000000 10.331984 -29.404357 -16.756771 4.112745 0.454560 12.768558 -10.092532 -26.883118 -48.236443 0.000000 0.000000 0.000000 -9.164841 23.613127 -12.790240 7.152891 -2.534270 16.106803 -21.162912 -2.212912 -60.589354 
-0.064489 0.925309 0.022313 -5.754777 -2.953112 4.102966 0.000000 0.000000 0.000000 6.875064 -1.781988 -6.856310 6.065004 -2.005211 20.589911 3.704053 -10.597568 -11.356810 0.000000 0.000000 0.000000 8.729108 3.158546 -14.787075 -3.471066 1.038072 5.252340 3.051992 7.831238 1.461820 0.000000 0.000000 0.000000 2.835733 0.296142 -8.321401 -3.850572 5.662684 48.852788 1.737839 3.064733 -40.629729 0.000000 0.000000 0.000000 -7.733019 3.723123 8.274534 0.000000 0.000000 0.000000 9.743986 -30.242006 -17.189934 5.369895 0.248103 12.969852 -7.774801 -20.084479 -40.936615 0.000000 0.000000 0.000000 -9.637519 23.051642 -12.484649 7.513208 -3.035970 18.661446 -21.112168 -2.095752 -60.774686 
-0.082677 0.926353 0.024313 -5.732069 -2.773092 4.668497 0.000000 0.000000 0.000000 7.977478 -2.736040 -12.497534 5.098053 -2.292653 29.394399 2.946245 -10.109560 -9.877762 0.000000 0.000000 0.000000 9.801057 3.215906 -14.734821 -3.228198 0.905043 4.370291 2.841033 7.615273 1.175298 0.000000 0.000000 0.000000 1.503381 0.231091 -5.708735 -4.057360 5.660540 48.092715 1.825993 2.542119 -40.503268 0.000000 0.000000 0.000000 -8.154659 3.928117 7.662179 0.000000 0.000000 0.000000 9.034267 -32.274066 -18.337981 7.282394 -0.088509 13.183287 -3.782616 -12.433312 -32.719843 0.000000 0.000000 0.000000 -10.302377 22.864644 -12.408634 8.038013 -3.631633 21.566139 -20.881713 -1.763511 -60.846279 
-0.097627 0.926203 0.024781 -6.045423 -2.901165 4.882851 0.000000 0.000000 0.000000 9.229471 -3.195536 -15.831610 3.463121 -1.838107 32.232390 2.239759 -12.383797 -9.587546 0.000000 0.000000 0.000000 11.216318 3.124480 -14.022974 -3.281199 0.768305 2.805343 3.099379 7.933159 1.492657 0.000000 0.000000 0.000000 0.481921 0.075014 -2.049750 -4.518100 5.837146 47.071601 1.768142 1.782456 -40.377350 0.000000 0.000000 0.000000 -8.140162 3.803654 5.214636 0.000000 0.000000 0.000000 8.810091 -30.139077 -17.014372 8.787874 -0.389546 6.832517 -1.439051 -6.672243 -21.861090 0.000000 0.000000 0.000000 -11.376372 21.059944 -11.319703 8.744138 -3.783773 22.042316 -19.280784 0.633050 -60.872158 
-0.111151 0.925928 0.025738 -6.355020 -3.611078 5.648667 0.000000 0.000000 0.000000 9.865950 -3.344064 -17.238029 1.917544 -1.105079 29.016931 2.377914 -12.035023 -9.743757 0.000000 0.000000 0.000000 12.122240 3.189318 -14.060369 -2.695324 0.549595 1.537515 3.496466 8.608188 1.852292 0.000000 0.000000 0.000000 -0.724368 0.180079 -0.206482 -3.981904 5.544450 46.610611 0.855704 0.179050 -39.650576 0.000000 0.000000 0.000000 -7.644813 3.505638 3.353024 0.000000 0.000000 0.000000 6.297111 -33.110156 -18.338844 14.759398 -1.222557 7.283692 3.765163 -1.151317 -13.616165 0.000000 0.000000 0.000000 -10.401611 20.237797 -10.697103 7.599136 -3.887663 23.296774 -17.802060 3.099326 -61.235502 
-0.122986 0.924447 0.027033 -7.365482 -4.640799 6.591285 0.000000 0.000000 0.000000 10.528464 -3.297623 -17.449641 1.369439 -0.776876 25.350779 3.219237 -6.082678 -8.854967 0.000000 0.000000 0.000000 13.852355 3.313306 -14.091316 -2.454978 0.389043 0.158151 4.212752 9.789320 2.501856 0.000000 0.000000 0.000000 -1.517750 0.251635 1.398527 -2.989937 5.039300 46.337160 -0.103322 -1.747915 -39.604144 0.000000 0.000000 0.000000 -7.771041 3.525008 2.056880 0.000000 0.000000 0.000000 6.188812 -35.485679 -19.786409 18.600663 -1.834659 7.422598 8.557084 2.870773 -4.975028 0.000000 0.000000 0.000000 -9.906456 19.287190 -10.014728 7.027964 -3.932349 24.030805 -16.354855 5.577437 -61.468965 
-0.132647 0.921872 0.028686 -8.686118 -5.835397 7.646535 0.000000 0.000000 0.000000 11.562912 -3.157291 -17.244756 1.594695 -0.759948 24.180661 4.324504 -0.766694 -8.544850 0.000000 0.000000 0.000000 15.799094 3.499049 -14.241925 -2.277311 0.267200 -0.936933 5.012713 11.081252 3.203048 0.000000 0.000000 0.000000 -2.240214 0.366034 2.571881 -1.601426 4.277039 45.778261 -1.140082 -3.571935 -39.331392 0.000000 0.000000 0.000000 -8.228286 3.726209 1.387294 0.000000 0.000000 0.000000 7.384547 -36.956181 -21.101436 21.740466 -2.407247 7.888615 10.694671 4.504372 0.874903 0.000000 0.000000 0.000000 -9.651377 18.264341 -9.313367 6.440235 -3.915388 24.445977 -15.313416 7.379809 -61.494444 
-0.140573 0.918831 0.030756 -9.996156 -7.188322 8.617278 0.000000 0.000000 0.000000 12.984826 -2.912688 -16.443765 2.673090 -1.006778 23.714657 4.769637 -0.185170 -9.268537 0.000000 0.000000 0.000000 17.566347 3.623633 -14.193100 -2.014547 0.139428 -2.015602 5.915884 12.483770 3.983571 0.000000 0.000000 0.000000 -3.216558 0.601354 3.240029 -0.181116 3.565320 45.540230 -1.845609 -4.879006 -39.083540 0.000000 0.000000 0.000000 -8.759346 3.944161 0.681867 0.000000 0.000000 0.000000 8.740316 -37.623101 -22.015099 24.326601 -2.957306 8.637244 10.845176 4.799801 3.151883 0.000000 0.000000 0.000000 -9.124591 17.348259 -8.706250 5.602775 -3.856009 24.796537 -14.961765 7.926928 -61.008686 
-0.147524 0.916270 0.033592 -11.181260 -8.679167 9.421991 0.000000 0.000000 0.000000 14.609843 -2.614441 -15.197079 3.834015 -1.265126 23.047705 4.728922 -2.047007 -10.260047 0.000000 0.000000 0.000000 19.066666 3.493181 -13.450250 -1.618496 -0.052986 -3.852280 7.182359 14.140336 5.196479 0.000000 0.000000 0.000000 -4.332899 0.914875 3.432992 0.927350 3.120895 45.725127 -2.277414 -5.715027 -39.111340 0.000000 0.000000 0.000000 -8.912523 3.985456 0.127063 0.000000 0.000000 0.000000 9.741507 -37.982429 -22.626832 25.960233 -3.359056 9.313070 11.232109 5.047112 4.243339 0.000000 0.000000 0.000000 -8.462663 16.600311 -8.234454 5.115586 -3.851470 25.229127 -15.113328 7.448928 -59.994390 
-0.153270 0.914027 0.036974 -12.150306 -10.088663 10.209008 0.000000 0.000000 0.000000 16.073242 -2.387245 -14.418162 4.014271 -1.252121 22.942070 4.854734 -2.512215 -10.888624 0.000000 0.000000 0.000000 20.193984 3.137748 -12.220915 -1.102469 -0.286494 -6.504443 8.757333 15.820006 6.832871 0.000000 0.000000 0.000000 -5.183654 1.174924 3.237817 1.590567 2.938118 45.804119 -2.685325 -6.346464 -39.244235 0.000000 0.000000 0.000000 -8.801089 3.935234 0.001102 0.000000 0.000000 0.000000 10.129359 -38.096095 -22.875984 26.887146 -3.560270 9.425965 12.004976 5.482790 6.134304 0.000000 0.000000 0.000000 -8.029098 15.810293 -7.751005 5.105280 -3.923654 25.766592 -15.276813 6.873879 -58.905904 
-0.157518 0.911979 0.040248 -12.832793 -11.261550 10.961914 0.000000 0.000000 0.000000 16.962163 -2.284418 -14.620120 3.558986 -1.078145 24.064339 5.246822 -0.944805 -11.070849 0.000000 0.000000 0.000000 21.001064 2.799675 -11.158962 -0.711851 -0.454479 -8.925503 10.179661 17.079342 8.371088 0.000000 0.000000 0.000000 -5.625729 1.322154 2.909216 1.956936 2.880999 45.610907 -3.149532 -6.929648 -39.307558 0.000000 0.000000 0.000000 -8.784437 3.931002 -0.071677 0.000000 0.000000 0.000000 9.938380 -37.993137 -22.789745 27.641074 -3.699476 9.280208 12.490731 5.817740 8.310441 0.000000 0.000000 0.000000 -7.799123 15.061406 -7.294158 5.137097 -4.012547 26.368630 -15.341130 6.572920 -58.178362 
